<svg width="800" height="600" xmlns="http://www.w3.org/2000/svg">
 <g>
  <title>Layer 1</title>
  <ellipse fill="#aaaaff" stroke="#000" cx="87" cy="561" id="svg_85" rx="53.5" ry="26.5"/>
  <ellipse fill="#aaaaff" stroke="#000" cx="87" cy="501" id="svg_84" rx="53.5" ry="26.5"/>
  <ellipse fill="#aaaaff" stroke="#000" cx="85" cy="439" id="svg_83" rx="53.5" ry="26.5"/>
  <rect fill="#D1FFB4" x="25.5" y="165" width="127" height="32" id="svg_46" stroke="#000"/>
  <rect fill="#FFFA8D" stroke="#000" x="335.5" y="162" width="222" height="107" id="svg_1"/>
  <path fill="#fff" stroke="#000" opacity="NaN" d="m425.5,207" id="svg_2"/>
  <path fill="#fff" stroke="#000" opacity="NaN" d="m374.5,214" id="svg_3"/>
  <text fill="#000000" stroke="#000" stroke-width="0" x="374.5" y="223" id="svg_4" font-size="24" font-family="Noto Sans JP" text-anchor="start" xml:space="preserve">Ponder Source</text>
  <path fill="#fff" stroke="#000" opacity="NaN" d="m160.5,208" id="svg_6"/>
  <path fill="#fff" stroke="#000" opacity="NaN" d="m109.5,215" id="svg_7"/>
  <rect fill="#d4ffaa" x="175.5" y="329" width="127" height="32" id="svg_13" stroke="#000"/>
  <path fill="#fff" stroke="#000" opacity="NaN" d="m363.5,334" id="svg_14"/>
  <path fill="#fff" stroke="#000" opacity="NaN" d="m312.5,341" id="svg_15"/>
  <text fill="#000000" stroke-width="0" x="144.43513" y="353.98685" id="svg_16" font-size="24" font-family="Noto Sans JP" text-anchor="start" xml:space="preserve" stroke="#000" transform="matrix(0.599771 0 0 0.357479 125.872 222.314)">Peppol</text>
  <rect fill="#d4ffaa" x="499.5" y="329" width="127" height="32" id="svg_17" stroke="#000"/>
  <path fill="#fff" stroke="#000" opacity="NaN" d="m605.5,335" id="svg_18"/>
  <text fill="#000000" stroke-width="0" x="277.81934" y="345.59474" id="svg_19" font-size="24" font-family="Noto Sans JP" text-anchor="start" xml:space="preserve" stroke="#000" transform="matrix(0.599771 0 0 0.357479 376.872 224.314)">Solid</text>
  <path fill="#fff" stroke="#000" opacity="NaN" d="m219.5,333" id="svg_21"/>
  <text fill="#000000" stroke-width="0" x="307.83079" y="-101.98395" id="svg_22" font-size="24" font-family="Noto Sans JP" text-anchor="start" xml:space="preserve" stroke="#000" transform="matrix(0.599771 0 0 0.357479 -127.128 221.314)">Prejournal</text>
  <rect fill="#999999" x="655.5" y="329" width="127" height="32" id="svg_23" stroke="#000"/>
  <path fill="#fff" stroke="#000" opacity="NaN" d="m741.5,334" id="svg_24"/>
  <text fill="#000000" stroke-width="0" x="311.16539" y="348.39211" id="svg_25" font-size="24" font-family="Noto Sans JP" text-anchor="start" xml:space="preserve" stroke="#000" transform="matrix(0.599771 0 0 0.357479 503.872 222.314)">Nextcloud</text>
  <rect fill="#d4ffaa" x="341.5" y="329" width="127" height="32" id="svg_33" stroke="#000"/>
  <text fill="#000000" stroke-width="0" x="144.43513" y="353.98685" id="svg_35" font-size="24" font-family="Noto Sans JP" text-anchor="start" xml:space="preserve" stroke="#000" transform="matrix(0.599771 0 0 0.357479 283.872 221.314)">ScienceMesh</text>
  <line fill="none" stroke="#000" x1="412.5" y1="269" x2="238.5" y2="329" id="svg_37"/>
  <line fill="none" x1="439.5" y1="269" x2="406.5" y2="329" id="svg_38" stroke="#000"/>
  <line fill="none" x1="478.5" y1="269" x2="559.5" y2="328" id="svg_39" stroke="#000"/>
  <line fill="none" stroke="#000" x1="522.5" y1="269" x2="721.5" y2="329" id="svg_40"/>
  <rect fill="#aaffff" x="26.5" y="213" width="127" height="32" id="svg_47" stroke="#000"/>
  <rect fill="#aaffff" x="177.5" y="391" width="127" height="32" id="svg_48" stroke="#000"/>
  <rect fill="#aaffff" x="177.5" y="426" width="127" height="32" id="svg_49" stroke="#000"/>
  <rect fill="#aaffff" x="27.5" y="266" width="127" height="32" id="svg_50" stroke="#000"/>
  <rect fill="#aaffff" x="28.5" y="314" width="127" height="32" id="svg_51" stroke="#000"/>
  <rect fill="#aaffff" x="341.5" y="368" width="127" height="32" id="svg_52" stroke="#000"/>
  <rect fill="#aaffff" x="341.5" y="406" width="127" height="32" id="svg_53" stroke="#000"/>
  <rect fill="#aaffff" x="342.5" y="442" width="127" height="32" id="svg_54" stroke="#000"/>
  <rect fill="#aaffff" x="501.5" y="387" width="127" height="32" id="svg_55" stroke="#000"/>
  <rect fill="#aaffff" x="501.5" y="431" width="128" height="32" id="svg_56" stroke="#000"/>
  <text fill="#000000" stroke-width="0" x="311.16539" y="348.39211" id="svg_57" font-size="24" font-family="Noto Sans JP" text-anchor="start" xml:space="preserve" stroke="#000" transform="matrix(0.599771 0 0 0.357479 -130.128 106.314)">Billing-API</text>
  <text fill="#000000" stroke-width="0" x="311.16539" y="348.39211" id="svg_58" font-size="24" font-family="Noto Sans JP" text-anchor="start" xml:space="preserve" stroke="#000" transform="matrix(0.599771 0 0 0.357479 -126.128 159.314)">Timesheets</text>
  <text fill="#000000" stroke-width="0" x="311.16539" y="348.39211" id="svg_59" font-size="24" font-family="Noto Sans JP" text-anchor="start" xml:space="preserve" stroke="#000" transform="matrix(0.599771 0 0 0.357479 -128.128 207.314)">Dogfooding</text>
  <text fill="#000000" stroke-width="0" x="311.16539" y="348.39211" id="svg_60" font-size="24" font-family="Noto Sans JP" text-anchor="start" xml:space="preserve" stroke="#000" transform="matrix(0.599771 0 0 0.357479 22.872 285.314)">Peppol-Next</text>
  <text fill="#000000" stroke-width="0" x="311.16539" y="348.39211" id="svg_61" font-size="24" font-family="Noto Sans JP" text-anchor="start" xml:space="preserve" stroke="#000" transform="matrix(0.599771 0 0 0.357479 25.872 324.314)">LetsPeppol</text>
  <text fill="#000000" stroke-width="0" x="304.49618" y="258.87637" id="svg_62" font-size="24" font-family="Noto Sans JP" text-anchor="start" xml:space="preserve" stroke="#000" transform="matrix(0.599771 0 0 0.357479 163.872 368.314)">ScienceMesh-OC10</text>
  <text fill="#000000" stroke-width="0" x="311.16539" y="348.39211" id="svg_63" font-size="24" font-family="Noto Sans JP" text-anchor="start" xml:space="preserve" stroke="#000" transform="matrix(0.599771 0 0 0.357479 176.872 262.314)">OCM test suite</text>
  <text fill="#000000" stroke-width="0" x="311.16539" y="284.05267" id="svg_64" font-size="24" font-family="Noto Sans JP" text-anchor="start" xml:space="preserve" stroke="#000" transform="matrix(0.599771 0 0 0.357479 167.872 324.314)">ScienceMesh-NC</text>
  <text fill="#000000" stroke-width="0" x="309.49809" y="351.18948" id="svg_65" font-size="24" font-family="Noto Sans JP" text-anchor="start" xml:space="preserve" stroke="#000" transform="matrix(0.599771 0 0 0.357479 331.872 279.314)">Solid-Nextcloud</text>
  <text fill="#000000" stroke-width="0" x="296.15967" y="351.18948" id="svg_66" font-size="24" font-family="Noto Sans JP" text-anchor="start" xml:space="preserve" stroke="#000" transform="matrix(0.599771 0 0 0.357479 342.872 324.314)">Solid test suite</text>
  <rect fill="#e5e5e5" x="653.5" y="385" width="127" height="32" id="svg_67" stroke="#000"/>
  <text fill="#000000" stroke-width="0" x="311.16539" y="348.39211" id="svg_68" font-size="24" font-family="Noto Sans JP" text-anchor="start" xml:space="preserve" stroke="#000" transform="matrix(0.599771 0 0 0.357479 498.872 276.314)">Sunet-MFA</text>
  <line fill="none" x1="334.5" y1="217" x2="154.50001" y2="176" id="svg_69" stroke="#000000"/>
  <rect fill="#aaffff" x="28.5" y="362" width="126" height="32" id="svg_70" stroke="#000"/>
  <text fill="#000000" stroke-width="0" x="311.16539" y="348.39211" id="svg_71" font-size="24" font-family="Noto Sans JP" text-anchor="start" xml:space="preserve" stroke="#000" transform="matrix(0.523333 0 0 0.357479 -124.725 255.314)">Connect Your Books</text>
  <ellipse fill="#aaaaff" stroke="#000" cx="409" cy="569" id="svg_72" rx="53.5" ry="26.5"/>
  <text fill="#000000" stroke="#000" x="378.5" y="574.5" id="svg_73" stroke-width="0" font-size="24" font-family="Noto Sans JP" text-anchor="start" xml:space="preserve">Navid</text>
  <ellipse fill="#aaaaff" stroke="#000" cx="567" cy="535" id="svg_74" rx="53.5" ry="26.5"/>
  <text fill="#000000" x="538.5" y="542.5" id="svg_75" stroke-width="0" font-size="24" font-family="Noto Sans JP" text-anchor="start" xml:space="preserve" stroke="#000" transform="matrix(0.503556 0 0 1 260.892 0)">MohamadReza</text>
  <ellipse fill="#aaaaff" stroke="#000" cx="408" cy="509" id="svg_76" rx="53.5" ry="26.5"/>
  <text fill="#000000" x="228.51809" y="515.5" id="svg_77" stroke-width="0" font-size="24" font-family="Noto Sans JP" text-anchor="start" xml:space="preserve" stroke="#000" transform="matrix(0.792284 0 0 1 197.726 0)">Michiel</text>
  <ellipse fill="#aaaaff" stroke="#000" cx="244" cy="503" id="svg_78" rx="53.5" ry="26.5"/>
  <text fill="#000000" x="-109.28828" y="509.5" id="svg_79" stroke-width="0" font-size="24" font-family="Noto Sans JP" text-anchor="start" xml:space="preserve" stroke="#000" transform="matrix(0.954644 0 0 1 318.076 0)">Yashar</text>
  <text fill="#000000" x="-172.8532" y="445.5" id="svg_80" stroke-width="0" font-size="24" font-family="Noto Sans JP" text-anchor="start" xml:space="preserve" stroke="#000" transform="matrix(0.792284 0 0 1 197.726 0)">Ismoil</text>
  <ellipse fill="#aaaaff" stroke="#000" cx="49.48889" cy="567" id="svg_81" rx="53.5" ry="26.5" transform="matrix(0.993152 0 0 1 196.763 0)"/>
  <text fill="#000000" x="-99.86066" y="568.5" id="svg_82" stroke-width="0" font-size="24" font-family="Noto Sans JP" text-anchor="start" xml:space="preserve" stroke="#000" transform="matrix(0.954644 0 0 1 318.076 0)">Bänz</text>
  <text fill="#000000" x="-206.77843" y="491.5" id="svg_86" stroke-width="0" font-size="24" font-family="Noto Sans JP" text-anchor="start" xml:space="preserve" stroke="#000" transform="matrix(0.597981 0 0 1 168.199 15)">Triantafullenia</text>
  <text fill="#000000" x="-174.11537" y="563.5" id="svg_87" stroke-width="0" font-size="24" font-family="Noto Sans JP" text-anchor="start" xml:space="preserve" stroke="#000" transform="matrix(0.792284 0 0 1 197.726 0)">Andrej</text>
 </g>

</svg>